<svg width="20" height="20" viewBox="0 0 20 20" fill="none" xmlns="http://www.w3.org/2000/svg">
<g id="Icons/Navigation/more_vert" clip-path="url(#clip0_2202_9891)">
<path id="Vector" d="M9.99992 6.66666C10.9166 6.66666 11.6666 5.91666 11.6666 4.99999C11.6666 4.08333 10.9166 3.33333 9.99992 3.33333C9.08325 3.33333 8.33325 4.08333 8.33325 4.99999C8.33325 5.91666 9.08325 6.66666 9.99992 6.66666ZM9.99992 8.33333C9.08325 8.33333 8.33325 9.08333 8.33325 9.99999C8.33325 10.9167 9.08325 11.6667 9.99992 11.6667C10.9166 11.6667 11.6666 10.9167 11.6666 9.99999C11.6666 9.08333 10.9166 8.33333 9.99992 8.33333ZM9.99992 13.3333C9.08325 13.3333 8.33325 14.0833 8.33325 15C8.33325 15.9167 9.08325 16.6667 9.99992 16.6667C10.9166 16.6667 11.6666 15.9167 11.6666 15C11.6666 14.0833 10.9166 13.3333 9.99992 13.3333Z" fill="#5C5C5C"/>
</g>
<defs>
<clipPath id="clip0_2202_9891">
<rect width="20" height="20" fill="white"/>
</clipPath>
</defs>
</svg>
