<svg width="69" height="20" viewBox="0 0 69 20" fill="none" xmlns="http://www.w3.org/2000/svg">
<rect y="0.5" width="69" height="19" rx="9.5" fill="#EBF4FD"/>
<path d="M16.4355 9.76465V10.1309C16.4355 10.668 16.3639 11.1514 16.2207 11.5811C16.0775 12.0075 15.874 12.3704 15.6104 12.6699C15.3467 12.9694 15.0326 13.1989 14.668 13.3584C14.3034 13.5179 13.8981 13.5977 13.4521 13.5977C13.0127 13.5977 12.609 13.5179 12.2412 13.3584C11.8766 13.1989 11.5609 12.9694 11.2939 12.6699C11.027 12.3704 10.8203 12.0075 10.6738 11.5811C10.5273 11.1514 10.4541 10.668 10.4541 10.1309V9.76465C10.4541 9.22428 10.5273 8.74089 10.6738 8.31445C10.8203 7.88802 11.0254 7.52507 11.2891 7.22559C11.5527 6.92285 11.8669 6.69173 12.2314 6.53223C12.5993 6.37272 13.0029 6.29297 13.4424 6.29297C13.8883 6.29297 14.2936 6.37272 14.6582 6.53223C15.0228 6.69173 15.3369 6.92285 15.6006 7.22559C15.8675 7.52507 16.0726 7.88802 16.2158 8.31445C16.3623 8.74089 16.4355 9.22428 16.4355 9.76465ZM15.0781 10.1309V9.75488C15.0781 9.36751 15.0423 9.02734 14.9707 8.73438C14.8991 8.43815 14.7933 8.18913 14.6533 7.9873C14.5133 7.78548 14.3408 7.63411 14.1357 7.5332C13.9307 7.42904 13.6995 7.37695 13.4424 7.37695C13.182 7.37695 12.9508 7.42904 12.749 7.5332C12.5505 7.63411 12.3812 7.78548 12.2412 7.9873C12.1012 8.18913 11.9938 8.43815 11.9189 8.73438C11.8473 9.02734 11.8115 9.36751 11.8115 9.75488V10.1309C11.8115 10.515 11.8473 10.8551 11.9189 11.1514C11.9938 11.4476 12.1012 11.6982 12.2412 11.9033C12.3844 12.1051 12.557 12.2581 12.7588 12.3623C12.9606 12.4665 13.1917 12.5186 13.4521 12.5186C13.7126 12.5186 13.9437 12.4665 14.1455 12.3623C14.3473 12.2581 14.5166 12.1051 14.6533 11.9033C14.7933 11.6982 14.8991 11.4476 14.9707 11.1514C15.0423 10.8551 15.0781 10.515 15.0781 10.1309ZM18.0732 6.39062H20.6562C21.1966 6.39062 21.6605 6.47201 22.0479 6.63477C22.4352 6.79753 22.7331 7.03841 22.9414 7.35742C23.1497 7.67643 23.2539 8.06868 23.2539 8.53418C23.2539 8.90202 23.1888 9.22103 23.0586 9.49121C22.9284 9.76139 22.7445 9.98763 22.5068 10.1699C22.2725 10.3522 21.9958 10.4954 21.6768 10.5996L21.2568 10.8145H18.9766L18.9668 9.75488H20.6709C20.9476 9.75488 21.1771 9.70605 21.3594 9.6084C21.5417 9.51074 21.6784 9.37565 21.7695 9.20312C21.8639 9.0306 21.9111 8.83366 21.9111 8.6123C21.9111 8.37467 21.8656 8.1696 21.7744 7.99707C21.6833 7.82129 21.5449 7.6862 21.3594 7.5918C21.1738 7.4974 20.9395 7.4502 20.6562 7.4502H19.416V13.5H18.0732V6.39062ZM22.0869 13.5L20.4414 10.3164L21.8623 10.3115L23.5273 13.4316V13.5H22.0869ZM26.3613 6.39062V13.5H25.0186V6.39062H26.3613ZM33.8584 9.82324V12.5918C33.7542 12.7253 33.5898 12.8701 33.3652 13.0264C33.1439 13.1826 32.8542 13.3177 32.4961 13.4316C32.138 13.5423 31.6986 13.5977 31.1777 13.5977C30.7253 13.5977 30.3118 13.5228 29.9375 13.373C29.5632 13.2201 29.2409 12.9971 28.9707 12.7041C28.7005 12.4111 28.4922 12.0531 28.3457 11.6299C28.1992 11.2067 28.126 10.7233 28.126 10.1797V9.71094C28.126 9.16732 28.1943 8.68392 28.3311 8.26074C28.471 7.83757 28.6696 7.47949 28.9268 7.18652C29.1872 6.89355 29.498 6.67057 29.8594 6.51758C30.224 6.36458 30.6309 6.28809 31.0801 6.28809C31.6823 6.28809 32.1771 6.38737 32.5645 6.58594C32.9551 6.78451 33.2546 7.05794 33.4629 7.40625C33.6712 7.7513 33.8014 8.14844 33.8535 8.59766H32.5449C32.5091 8.35026 32.4375 8.13379 32.3301 7.94824C32.2227 7.75944 32.0697 7.61296 31.8711 7.50879C31.6758 7.40137 31.4219 7.34766 31.1094 7.34766C30.8457 7.34766 30.613 7.39974 30.4111 7.50391C30.2093 7.60807 30.04 7.75944 29.9033 7.95801C29.7666 8.15658 29.6624 8.40234 29.5908 8.69531C29.5225 8.98828 29.4883 9.32357 29.4883 9.70117V10.1797C29.4883 10.5605 29.5273 10.8991 29.6055 11.1953C29.6836 11.4883 29.7959 11.7357 29.9424 11.9375C30.0921 12.1361 30.276 12.2874 30.4941 12.3916C30.7155 12.4925 30.9661 12.543 31.2461 12.543C31.5 12.543 31.71 12.5218 31.876 12.4795C32.0452 12.4339 32.1803 12.3802 32.2812 12.3184C32.3822 12.2565 32.4603 12.1963 32.5156 12.1377V10.8047H31.1045V9.82324H33.8584ZM37.0586 6.39062V13.5H35.7158V6.39062H37.0586ZM44.7217 6.39062V13.5H43.374L40.3516 8.56836V13.5H39.0088V6.39062H40.3516L43.3838 11.3271V6.39062H44.7217ZM49.5039 7.46973L47.4775 13.5H46.0566L48.7129 6.39062H49.6211L49.5039 7.46973ZM51.1982 13.5L49.1621 7.46973L49.04 6.39062H49.9531L52.624 13.5H51.1982ZM51.1055 10.8584V11.918H47.292V10.8584H51.1055ZM58.3682 12.4453V13.5H54.7939V12.4453H58.3682ZM55.1992 6.39062V13.5H53.8564V6.39062H55.1992Z" fill="#007BFF"/>
</svg>
