<svg width="21" height="21" viewBox="0 0 21 21" fill="none" xmlns="http://www.w3.org/2000/svg">
<g clip-path="url(#clip0_2857_18011)">
<path d="M12.25 10.5C12.25 9.5375 11.4625 8.75 10.5 8.75C9.5375 8.75 8.75 9.5375 8.75 10.5C8.75 11.4625 9.5375 12.25 10.5 12.25C11.4625 12.25 12.25 11.4625 12.25 10.5ZM10.5 2.625C6.15125 2.625 2.625 6.15125 2.625 10.5H0L3.5 14L7 10.5H4.375C4.375 7.11375 7.11375 4.375 10.5 4.375C13.8862 4.375 16.625 7.11375 16.625 10.5C16.625 13.8862 13.8862 16.625 10.5 16.625C9.17875 16.625 7.95375 16.1963 6.9475 15.4875L5.705 16.7475C7.035 17.7625 8.6975 18.375 10.5 18.375C14.8488 18.375 18.375 14.8488 18.375 10.5C18.375 6.15125 14.8488 2.625 10.5 2.625Z" fill="#5C276E"/>
</g>
<defs>
<clipPath id="clip0_2857_18011">
<rect width="21" height="21" fill="white"/>
</clipPath>
</defs>
</svg>
