<svg width="18" height="18" viewBox="0 0 18 18" fill="none" xmlns="http://www.w3.org/2000/svg">
<g id="Group 109">
<path id="Vector" d="M7.87453 0.998752C7.74476 0.652684 7.25524 0.652683 7.12547 0.998751L5.51839 5.2843C5.47782 5.39247 5.39247 5.47782 5.2843 5.51839L0.998752 7.12547C0.652684 7.25524 0.652683 7.74476 0.998751 7.87453L5.2843 9.48161C5.39247 9.52218 5.47782 9.60753 5.51839 9.7157L7.12547 14.0012C7.25524 14.3473 7.74476 14.3473 7.87453 14.0012L9.48161 9.7157C9.52218 9.60753 9.60753 9.52218 9.7157 9.48161L14.0012 7.87453C14.3473 7.74476 14.3473 7.25524 14.0012 7.12547L9.7157 5.51839C9.60753 5.47782 9.52218 5.39247 9.48161 5.2843L7.87453 0.998752Z" fill="white"/>
<path id="Vector_2" d="M14.1873 10.4994C14.1224 10.3263 13.8776 10.3263 13.8127 10.4994L12.941 12.824C12.9207 12.8781 12.8781 12.9207 12.824 12.941L10.4994 13.8127C10.3263 13.8776 10.3263 14.1224 10.4994 14.1873L12.824 15.059C12.8781 15.0793 12.9207 15.1219 12.941 15.176L13.8127 17.5006C13.8776 17.6737 14.1224 17.6737 14.1873 17.5006L15.059 15.176C15.0793 15.1219 15.1219 15.0793 15.176 15.059L17.5006 14.1873C17.6737 14.1224 17.6737 13.8776 17.5006 13.8127L15.176 12.941C15.1219 12.9207 15.0793 12.8781 15.059 12.824L14.1873 10.4994Z" fill="white"/>
</g>
</svg>
