<svg width="20" height="21" viewBox="0 0 20 21" fill="none" xmlns="http://www.w3.org/2000/svg">
<g clip-path="url(#clip0_2857_18015)">
<path d="M9.99998 5.50016C13.1583 5.50016 15.975 7.27516 17.35 10.0835C15.975 12.8918 13.1583 14.6668 9.99998 14.6668C6.84165 14.6668 4.02498 12.8918 2.64998 10.0835C4.02498 7.27516 6.84165 5.50016 9.99998 5.50016ZM9.99998 3.8335C5.83331 3.8335 2.27498 6.42516 0.833313 10.0835C2.27498 13.7418 5.83331 16.3335 9.99998 16.3335C14.1666 16.3335 17.725 13.7418 19.1666 10.0835C17.725 6.42516 14.1666 3.8335 9.99998 3.8335ZM9.99998 8.00016C11.15 8.00016 12.0833 8.9335 12.0833 10.0835C12.0833 11.2335 11.15 12.1668 9.99998 12.1668C8.84998 12.1668 7.91665 11.2335 7.91665 10.0835C7.91665 8.9335 8.84998 8.00016 9.99998 8.00016ZM9.99998 6.3335C7.93331 6.3335 6.24998 8.01683 6.24998 10.0835C6.24998 12.1502 7.93331 13.8335 9.99998 13.8335C12.0666 13.8335 13.75 12.1502 13.75 10.0835C13.75 8.01683 12.0666 6.3335 9.99998 6.3335Z" fill="#5C276E"/>
</g>
<defs>
<clipPath id="clip0_2857_18015">
<rect width="20" height="20" fill="white" transform="translate(0 0.5)"/>
</clipPath>
</defs>
</svg>
